OpenSim_Sub09_CSStiffKnee_GRF.mot
version=1
nRows=58
nColumns=19
inDegrees=no
endheader
time	lFx	lFy	lFz	lCOPx	lCOPy	lCOPz	rFx	rFy	rFz	rCOPx	rCOPy	rCOPz	lMx	lMy	lMz	rMx	rMy	rMz
17.81000000	2.42343711	0.58103919	3.29425376	0.00052215	0	-0.00033330	-19.85951969	566.89525946	-65.02785217	1.09993467	0	-0.36317585	0	0.00763536	0	0	-8.78495897	0
17.82000000	2.59047519	0.35363661	3.22637429	-0.00407003	0	0.00275643	-18.84900958	579.31273384	-65.14992430	1.09323131	0	-0.36360041	0	0.00356964	0	0	-8.80778739	0
17.83000000	2.97777030	-1.00829769	3.10490273	-0.01442960	0	0.00969538	-17.83296315	593.16109611	-66.13511412	1.08586609	0	-0.36393492	0	-0.01803335	0	0	-8.79523946	0
17.84000000	3.26536322	-4.22629131	2.95660669	-0.02870507	0	0.01920477	-16.35085568	607.86340399	-67.82654916	1.07768946	0	-0.36422174	0	-0.06869720	0	0	-8.72941862	0
17.85000000	2.43992588	-8.59755048	2.95463236	-0.03308957	0	0.02198102	-14.36513177	623.16398723	-69.88361695	1.06876130	0	-0.36447500	0	-0.14175498	0	0	-8.55969711	0
17.86000000	-1.33158198	-9.49700937	3.54441491	0.00762979	0	-0.00558526	-12.12067407	639.00792547	-71.85375820	1.05961163	0	-0.36468647	0	-0.17311742	0	0	-8.33063176	0
17.87000000	-9.81693852	4.34084865	5.27259460	0.14881018	0	-0.10043397	-10.07259443	655.22551980	-73.70497203	1.05065771	0	-0.36494455	0	0.00797563	0	0	-8.07944494	0
17.88000000	-22.14534644	51.05430543	8.41113053	0.42625867	0	-0.28603509	-8.85028778	671.65685227	-75.52041159	1.04219419	0	-0.36530531	0	0.68083702	0	0	-7.79197687	0
17.89000000	-34.22607662	150.38025418	11.95386253	0.75096549	0	-0.50194453	-8.70902280	687.87578198	-77.17101008	1.03438367	0	-0.36570974	0	2.05741279	0	0	-7.43918216	0
17.90000000	-42.50543281	304.05379580	14.67565954	0.96567855	0	-0.64304186	-9.23170957	703.11655030	-78.56878799	1.02728091	0	-0.36609212	0	3.93499153	0	0	-6.99091133	0.00000000
17.91000000	-52.24592005	478.42576779	20.34751053	1.05521778	0	-0.70148255	-9.66473409	716.67312379	-79.69197710	1.02049039	0	-0.36642635	0	4.81925273	0	0	-6.43856639	0.00000000
17.92000000	-66.66893027	630.73762178	32.32276839	1.07100725	0	-0.71272534	-9.28784138	728.06286794	-80.41872287	1.01365800	0	-0.36670999	0	3.70619569	0	0	-5.86537493	-0.00000000
17.93000000	-78.03102150	738.22215852	47.40609481	1.05987934	0	-0.70778529	-7.80604519	736.98465581	-80.77141360	1.00659853	0	-0.36694011	0	1.35353325	0	0	-5.27937647	0
17.94000000	-81.17701083	796.30916851	61.59026300	1.04503531	0	-0.70224086	-5.32086246	743.31940274	-80.87298821	0.99943541	0	-0.36710975	0	-1.34197861	0	0	-4.67147520	0
17.95000000	-76.88971088	812.91544891	73.86321625	1.03343103	0	-0.70036567	-2.32525363	746.95745000	-80.86186938	0.99226773	0	-0.36718458	0	-3.96257657	0	0	-4.08562132	0
17.96000000	-67.25719661	800.76023880	83.06782136	1.02509240	0	-0.70149450	0.78635257	747.58267730	-80.97082012	0.98505386	0	-0.36715630	0	-6.01534769	0	0	-3.58502244	0
17.97000000	-54.74907683	771.72302728	88.47186518	1.01878937	0	-0.70403166	3.86447893	745.04440413	-81.34660549	0.97793520	0	-0.36702821	0	-7.20404896	0	0	-3.13374030	0
17.98000000	-41.46214669	735.38092763	90.60588773	1.01357775	0	-0.70692238	7.02438200	739.45189070	-81.91784877	0.97108610	0	-0.36684041	0	-7.57868405	0	0	-2.69429054	0
17.99000000	-29.10105358	699.34831633	90.87133191	1.00894225	0	-0.70971870	10.41297802	731.25063849	-82.47932874	0.96458781	0	-0.36661404	0	-7.48534216	0	0	-2.26511427	0
18	-18.88609336	669.11817157	89.97921445	1.00475117	0	-0.71226648	14.08830441	721.32590222	-83.02677812	0.95833705	0	-0.36634798	0	-7.13916552	0	0	-1.81513501	0
18.01000000	-11.70062547	647.92372850	87.70876376	1.00118104	0	-0.71451087	17.84811749	710.66918253	-83.62391874	0.95233574	0	-0.36600270	0	-6.61640336	0	0	-1.32714104	0
18.02000000	-8.00886950	636.48733951	84.02756264	0.99837358	0	-0.71642824	21.32548976	700.04313379	-84.24304935	0.94659859	0	-0.36559522	0	-5.96739972	0	0	-0.85850473	0
18.03000000	-7.46098226	632.80474053	79.53131924	0.99605239	0	-0.71801749	24.30600718	690.11189523	-84.82291592	0.94115205	0	-0.36520516	0	-5.24545228	0	0	-0.38736347	0
18.04000000	-8.97501186	632.99841912	75.12302463	0.99385608	0	-0.71935851	26.69940515	681.33055273	-85.25572031	0.93589853	0	-0.36490982	0	-4.59653214	0	0	0.12407605	0.00000000
18.05000000	-11.15385376	633.27976520	71.54149495	0.99150475	0	-0.72055909	28.66240449	673.89438683	-85.46126468	0.93071392	0	-0.36475593	0	-4.11619118	0	0	0.63102342	0.00000000
18.06000000	-13.00690146	631.88430438	69.09034325	0.98894219	0	-0.72168084	30.36474236	668.11582121	-85.38793559	0.92567099	0	-0.36472985	0	-3.81883743	0	0	1.11074415	-0.00000000
18.07000000	-13.98682207	629.60958244	67.67685126	0.98605535	0	-0.72273434	32.01618336	664.25651060	-84.89318341	0.92083983	0	-0.36475778	0	-3.69317048	0	0	1.54449832	-0.00000000
18.08000000	-13.86192817	628.32765828	67.11895868	0.98264782	0	-0.72365510	33.82961782	662.20163255	-84.15354337	0.91623354	0	-0.36478260	0	-3.71024569	0	0	1.89475555	-0.00000000
18.09000000	-12.78549593	629.44351995	67.25404301	0.97852829	0	-0.72439564	36.01129165	661.15641689	-83.76301871	0.91162532	0	-0.36480316	0	-3.80539195	0	0	2.14892746	0.00000000
18.10000000	-11.11902312	633.46538209	67.92992637	0.97368448	0	-0.72490685	38.45423264	660.16711920	-84.12314015	0.90692057	0	-0.36475086	0	-3.91387074	0	0	2.37530525	0.00000000
18.11000000	-9.10944505	640.52390073	68.87093763	0.96813945	0	-0.72519489	40.83788509	658.64169903	-85.14655428	0.90218522	0	-0.36456227	0	-3.98922964	0	0	2.57088141	0.00000000
18.12000000	-6.70184095	650.51091726	69.79772329	0.96198147	0	-0.72533467	42.99707370	656.46077752	-86.55929719	0.89762097	0	-0.36424123	0	-4.03629648	0	0	2.72102753	-0.00000000
18.13000000	-3.75317488	662.82542033	70.64830531	0.95541760	0	-0.72539817	44.99408144	653.71964354	-88.05590353	0.89334370	0	-0.36381264	0	-4.05841993	0	0	2.84898510	0
18.14000000	-0.27576209	676.53357163	71.44672153	0.94871306	0	-0.72542158	46.98577669	650.56780543	-89.46484791	0.88942562	0	-0.36329372	0	-4.03111723	0	0	2.94203260	-0.00000000
18.15000000	3.26709530	690.73779407	72.28328924	0.94205289	0	-0.72544701	49.01348609	646.61427424	-90.59713566	0.88575638	0	-0.36268994	0	-4.03106784	0	0	3.01025072	-0.00000000
18.16000000	6.51593227	704.35979982	73.17185161	0.93556705	0	-0.72551591	51.12261961	640.80135097	-91.20031296	0.88214654	0	-0.36199404	0	-4.12906449	0	0	3.06919905	0
18.17000000	9.23282860	716.57562054	74.10941722	0.92949075	0	-0.72565326	53.45419440	631.15575247	-91.25865794	0.87849857	0	-0.36124967	0	-4.34651891	0	0	3.07062903	0.00000000
18.18000000	11.23536566	727.06212606	75.06504724	0.92382657	0	-0.72586499	56.07845185	614.81495717	-90.42879545	0.87499331	0	-0.36046556	0	-4.63475611	0	0	2.94446205	0
18.19000000	12.55801381	735.86465078	75.97190793	0.91850953	0	-0.72616764	58.57467452	588.67475950	-87.90960199	0.87189366	0	-0.35962193	0	-4.95435057	0	0	2.66274519	-0.00000000
18.20000000	13.55603000	743.08078500	76.73223055	0.91334947	0	-0.72655382	60.39064564	550.61220605	-82.97332320	0.86924538	0	-0.35879469	0	-5.26672532	0	0	2.34023203	0
18.21000000	14.66579088	748.59707093	77.29404505	0.90823500	0	-0.72700925	61.30392102	500.83393585	-75.11412155	0.86682740	0	-0.35833899	0	-5.53782291	0	0	2.10731627	0.00000000
18.22000000	16.09400402	752.02799128	77.70527786	0.90331148	0	-0.72751794	61.21452385	442.36358484	-63.96388013	0.86491527	0	-0.35903735	0	-5.77720962	0	0	2.05737461	0
18.23000000	17.80866873	752.86680948	77.96397918	0.89868122	0	-0.72808895	59.04462613	378.92246321	-49.39931838	0.86525155	0	-0.36201528	0	-5.99490864	0	0	2.29319047	0
18.24000000	19.67530188	750.81578508	78.02746246	0.89412461	0	-0.72871554	53.17152815	312.95299907	-32.26926445	0.87059588	0	-0.36826565	0	-6.19183088	0	0	2.65543382	0
18.25000000	21.80521195	745.66532845	77.83606143	0.88943626	0	-0.72936543	43.00162794	246.94988037	-14.74511164	0.88090298	0	-0.37713100	0	-6.39525767	0	0	2.91734099	0.00000000
18.26000000	24.23922062	737.70989834	77.34319750	0.88448582	0	-0.73002742	29.54137776	184.16742610	-0.79570032	0.88633365	0	-0.38353695	0	-6.57097037	0	0	2.84221576	0
18.27000000	26.77818008	727.76800982	76.56782196	0.87932377	0	-0.73070942	15.21914470	127.87429720	6.60460475	0.85919967	0	-0.37448258	0	-6.66971143	0	0	2.36754693	0
18.28000000	29.04843263	716.86609125	75.66023575	0.87419226	0	-0.73141358	2.63149079	81.16883792	7.79439784	0.75286935	0	-0.32896574	0	-6.72181702	0	0	1.68498309	0
18.29000000	30.94508988	705.68361161	74.63841689	0.86920879	0	-0.73208960	-6.58540379	46.75686400	6.02241067	0.53136807	0	-0.23122203	0	-6.75902513	0	0	0.99585731	0.00000000
18.30000000	32.57449113	694.79357485	73.45802464	0.86437000	0	-0.73268744	-11.34109398	24.64955687	4.22095485	0.25574984	0	-0.11007896	0	-6.75856371	0	0	0.38184576	0.00000000
18.31000000	34.04582014	684.97232039	72.23388953	0.85961413	0	-0.73320401	-10.79442573	11.58856237	3.00394511	0.06633703	0	-0.02788145	0	-6.72905355	0	0	0.04517347	-0.00000000
18.32000000	35.42479150	676.98119831	71.18014598	0.85490334	0	-0.73364434	-6.75397841	4.05402978	1.86952957	-0.01393345	0	0.00653855	0	-6.69348350	0	0	-0.06426001	0.00000000
18.33000000	36.75620849	671.40862137	70.50529912	0.85006839	0	-0.73403124	-2.73092299	0.19161991	0.52775241	-0.02873443	0	0.01262750	0	-6.69044869	0	0	-0.06375095	0
18.34000000	38.15485991	668.43946317	70.17912641	0.84477084	0	-0.73440296	-0.46853292	-1.03397412	-0.21998628	-0.01950515	0	0.00846209	0	-6.73099282	0	0	-0.03448035	0.00000000
18.35000000	39.67395624	667.70665236	70.14843578	0.83881989	0	-0.73477096	0.28102542	-0.96867071	-0.23364390	-0.00815668	0	0.00349612	0	-6.83846354	0	0	-0.01100238	0.00000000
18.36000000	41.41311365	668.48121962	70.32405729	0.83247461	0	-0.73515062	0.28172556	-0.61541228	-0.27832008	-0.00143597	0	0.00058864	0	-6.99628767	0	0	0.00021772	0.00000000
18.37000000	43.48432976	670.06759989	70.70032748	0.82603450	0	-0.73555156	0.06834925	-0.35191079	-0.22068079	0.00099272	0	-0.00044715	0	-7.20347632	0	0	0.00307720	0.00000000
18.38000000	46.08742008	671.84663265	71.26219787	0.81960406	0	-0.73591507	-0.11137340	-0.26664564	-0.04590071	0.00117951	0	-0.00051595	0	-7.45660738	0	0	0.00242492	0.00000000
